<svg xmlns="http://www.w3.org/2000/svg" viewBox="0 0 500 500" role="img" aria-label="Araña negra con telaraña">
  <rect width="500" height="500" fill="#ffffff"/>
  <g stroke="#000" stroke-width="18" stroke-linecap="round" fill="none">
    <path d="M175 130 C120 120 90 90 80 60"/>
    <path d="M185 170 C120 170 90 150 70 130"/>
    <path d="M195 210 C140 210 110 210 90 220"/>
    <path d="M205 250 C150 250 120 270 100 300"/>
    <path d="M320 120 C380 80 430 120 420 170"/>
    <path d="M310 170 C370 160 410 160 425 190"/>
    <path d="M300 210 C360 220 390 240 395 280"/>
    <path d="M290 250 C340 280 365 320 365 360"/>
  </g>
  <g fill="#000">
    <ellipse cx="250" cy="260" rx="70" ry="110"/>
    <ellipse cx="250" cy="160" rx="50" ry="75"/>
    <circle cx="225" cy="145" r="10" fill="#ffffff"/>
    <circle cx="275" cy="145" r="10" fill="#ffffff"/>
  </g>
  <g stroke="#000" stroke-width="8" fill="none">
    <path d="M380 30 C430 80 430 160 380 210"/>
    <path d="M395 40 C460 90 460 170 395 220"/>
    <circle cx="380" cy="125" r="60"/>
    <circle cx="380" cy="125" r="100"/>
    <line x1="380" y1="25" x2="380" y2="225"/>
    <line x1="345" y1="45" x2="415" y2="205"/>
    <line x1="330" y1="105" x2="430" y2="145"/>
  </g>
</svg>
